<?xml version="1.0" encoding="utf-8"?>
<!-- Generator: Adobe Illustrator 27.8.1, SVG Export Plug-In . SVG Version: 6.00 Build 0)  -->
<svg version="1.1" id="Capa_1" xmlns="http://www.w3.org/2000/svg" xmlns:xlink="http://www.w3.org/1999/xlink" x="0px" y="0px"
	 viewBox="0 0 522.4 129.3" style="enable-background:new 0 0 522.4 129.3;" xml:space="preserve">
<style type="text/css">
	.st0{fill:#171716;}
</style>
<g>
	<path class="st0" d="M506.3,64.4L506.3,64.4l0-32.2l0,0c0-17.8-14.4-32.2-32.2-32.2l-1,0h-47.3h0c-8.9,0-16.1,7.2-16.1,16.1v0.5
		v96.1v0c0,8.9,7.2,16.1,16.1,16.1l0,0h80.5l0,0c8.9,0,16.1-7.2,16.1-16.1v0V80.5v0C522.4,71.6,515.2,64.4,506.3,64.4z M442,43.4
		c0-8.9,7.2-16.1,16.1-16.1s16.1,7.2,16.1,16.1c0,8.9-7.2,16.1-16.1,16.1S442,52.3,442,43.4z M466.1,112.7
		c-8.9,0-16.1-7.2-16.1-16.1c0-8.9,7.2-16.1,16.1-16.1s16.1,7.2,16.1,16.1C482.2,105.5,475,112.7,466.1,112.7z"/>
	<path class="st0" d="M75.8,76.1c-2.9,2.9-6.9,4.7-11.4,4.7c-8.9,0-16.1-7.2-16.1-16.1s7.2-16.1,16.1-16.1c4.4,0,8.5,1.8,11.4,4.7
		l8.1,8.1l28.8-28.9v0C100.1,19.9,93.1,12.9,80.5,0.3h0l-32.2,0h0C29.4,19.1,18.8,29.7,0,48.5v0l0,32.1v0.1
		c18.8,18.8,29.4,29.4,48.3,48.3h0.1h32h0.1c12.6-12.6,19.6-19.6,32.2-32.2v0L83.8,68L75.8,76.1z"/>
	<polygon class="st0" points="120.8,0 136.9,0 169.2,0 169.2,80.8 217.5,80.8 217.5,113.2 217.5,129.3 201.4,129.3 153,129.3 
		120.8,129.3 120.8,97 120.8,16.2 	"/>
	<path class="st0" d="M369.8,0.3L369.8,0.3c0,8.9-7.2,16.1-16.1,16.1l0,0v32.2c-26.6,0-48.3-21.6-48.3-48.3h0h-32.2h0
		c0,26.6-21.6,48.3-48.3,48.3v0v32.2v0c26.6,0,48.3,21.6,48.3,48.3h0.1h32.1h0c0-26.7,21.6-48.3,48.3-48.3v0l0,48.3h32.2h0
		c0-8.9,7.2-16.1,16.1-16.1v0V0.3H369.8z M289.3,80.8c-8.9,0-16.1-7.2-16.1-16.1s7.2-16.1,16.1-16.1s16.1,7.2,16.1,16.1
		S298.2,80.8,289.3,80.8z"/>
</g>
</svg>
