<?xml version="1.0" encoding="utf-8"?>
<!-- Generator: Adobe Illustrator 27.8.1, SVG Export Plug-In . SVG Version: 6.00 Build 0)  -->
<svg version="1.1" id="Capa_1" xmlns="http://www.w3.org/2000/svg" xmlns:xlink="http://www.w3.org/1999/xlink" x="0px" y="0px"
	 viewBox="0 0 522.4 129.3" style="enable-background:new 0 0 522.4 129.3;" xml:space="preserve">
<style type="text/css">
	.st0{fill:#161615;}
</style>
<g>
	<g>
		<path class="st0" d="M75.7,75.7c-2.9,2.9-6.9,4.7-11.4,4.7c-8.9,0-16.1-7.2-16.1-16.1c0-8.9,7.2-16.1,16.1-16.1
			c4.4,0,8.5,1.8,11.4,4.7l8,8l28.8-28.8v0C112.6,14.4,98.2,0,80.4,0h0L48.2,0h0C21.6,0,0,21.6,0,48.2v0l0,32.1v0.1
			c0,26.6,21.6,48.2,48.2,48.2h0.1h32h0.1c17.8,0,32.1-14.4,32.1-32.1v0L83.7,67.7L75.7,75.7z"/>
		<path class="st0" d="M369.9,0L369.9,0c-6.3,6.3-9.8,9.8-16.1,16.1l0,0v32.1C335,29.4,324.5,18.8,305.6,0h0h-32.2h0
			c-18.8,18.8-29.4,29.4-48.2,48.2v0v32.2v0c18.8,18.8,29.4,29.4,48.2,48.2h0.1h32.1h0c18.8-18.8,29.4-29.4,48.2-48.2v0l0,48.2H386
			h0c6.3-6.3,9.8-9.8,16.1-16.1v0V0H369.9z M289.5,80.4c-8.9,0-16.1-7.2-16.1-16.1s7.2-16.1,16.1-16.1c8.9,0,16.1,7.2,16.1,16.1
			S298.4,80.4,289.5,80.4z"/>
		<path class="st0" d="M121.1,16.1c8.9,0,16.1-7.2,16.1-16.1l0,0l32.2,0v80.4h48.2v32.2v0c-8.9,0-16.1,7.2-16.1,16.1h0l-48.2,0h0
			c0-17.8-14.4-32.2-32.2-32.2v0L121.1,16.1L121.1,16.1z"/>
		<path class="st0" d="M506.3,0h-96.5v16.1v96.4v16.1l16.1,0h80.4l16.1,0l0-16.1V80.2V64.1h-16.1l0-32.3L506.3,0z M442,43.7
			c0-8.9,7.2-16.1,16.1-16.1s16.1,7.2,16.1,16.1c0,8.9-7.2,16.1-16.1,16.1S442,52.6,442,43.7z M466.1,112.5
			c-8.9,0-16.1-7.2-16.1-16.1c0-8.9,7.2-16.1,16.1-16.1s16.1,7.2,16.1,16.1C482.2,105.3,475,112.5,466.1,112.5z"/>
	</g>
</g>
</svg>
